<?xml version="1.0" encoding="UTF-8"?>
<svg xmlns="http://www.w3.org/2000/svg" viewBox="0 0 512 512" role="img" aria-labelledby="title desc">
<title id="title">RA-1 — The Uncensored AI</title>
<desc id="desc">RA-1 logo</desc>
<rect width="512" height="512" fill="#000"/>
<path d="M 120,374 138,391 129,392 141,393 151,401 143,402 157,404 162,408 161,409 171,408 173,414 191,422 224,431 228,429 231,432 253,433 249,432 249,430 238,429 235,427 257,425 225,424 199,417 179,408 173,408 170,402 142,385 131,374 Z M 382,317 376,326 379,324 384,324 386,326 Z M 379,322 381,319 383,321 382,323 Z M 349,317 349,326 356,326 358,324 357,318 Z M 350,319 355,318 357,323 351,325 Z M 333,317 332,326 340,326 333,324 334,322 339,322 334,321 333,319 340,317 Z M 315,317 315,326 317,323 324,326 322,325 324,319 322,317 Z M 316,319 322,318 323,321 317,322 Z M 299,317 298,325 306,326 307,318 Z M 298,319 305,318 306,324 300,325 Z M 282,317 281,322 287,322 288,324 280,325 288,326 289,322 282,321 281,319 289,318 Z M 263,317 262,326 264,320 271,326 271,317 269,323 Z M 246,317 246,326 253,326 247,324 248,322 252,322 247,319 253,317 Z M 229,317 228,325 236,326 237,324 230,325 229,319 237,319 235,317 Z M 211,317 210,326 212,320 219,326 219,317 217,323 Z M 193,317 193,325 200,326 201,317 199,325 194,324 Z M 165,317 165,326 172,326 166,324 167,322 171,322 166,319 172,317 Z M 147,317 147,326 149,322 154,322 155,326 156,318 155,317 154,321 149,321 Z M 130,317 134,319 135,326 135,319 138,317 Z M 375,185 354,208 380,209 380,293 406,293 406,185 Z M 124,121 118,122 120,124 110,137 97,138 105,139 106,141 94,161 81,161 81,163 92,164 83,183 79,184 82,186 76,203 73,206 75,208 72,222 64,224 60,223 65,224 64,227 45,228 46,230 60,229 61,231 71,232 71,239 72,237 74,242 70,244 72,248 71,250 70,249 70,254 65,255 67,256 55,258 70,261 72,281 77,299 70,300 79,304 81,312 87,322 86,324 92,334 91,338 100,349 103,350 103,355 96,356 105,357 113,366 124,366 117,358 128,357 118,354 123,352 121,353 118,350 108,349 108,346 96,329 96,325 87,303 84,302 84,288 81,285 78,260 84,259 85,257 93,257 81,255 88,252 80,249 82,247 78,245 79,231 77,231 76,228 80,224 82,210 86,207 84,202 99,165 106,161 104,159 111,148 132,123 125,123 Z M 92,328 94,331 93,334 91,333 Z M 70,224 72,226 69,229 67,226 Z M 402,109 396,109 393,107 365,107 372,107 373,109 362,110 366,110 391,133 394,137 391,139 400,145 409,160 413,161 412,165 422,186 420,192 424,193 428,199 427,203 433,230 433,275 429,276 432,276 433,278 431,278 427,297 423,300 426,300 427,302 423,307 419,307 422,308 419,319 403,349 392,363 381,374 378,374 379,377 368,383 359,394 332,409 335,410 333,413 322,413 305,420 288,424 262,427 269,427 265,430 254,430 255,433 288,432 318,424 315,423 317,420 329,421 331,418 340,414 340,411 342,412 361,400 367,399 369,397 367,396 368,393 374,391 381,385 384,385 386,377 394,374 409,353 425,324 430,309 432,307 451,306 453,304 439,304 438,302 442,301 442,299 434,298 438,281 437,278 451,276 443,277 435,273 439,271 440,237 436,235 436,231 439,230 439,225 432,194 427,192 427,186 429,185 418,161 414,158 415,156 406,142 411,141 400,138 402,137 398,136 399,133 377,111 385,109 Z M 367,103 347,90 324,79 308,75 310,74 296,74 290,71 278,70 270,67 263,68 261,65 281,64 294,66 289,65 292,64 247,62 223,65 222,67 209,69 191,75 176,83 166,83 163,86 165,87 146,100 151,103 150,105 140,104 128,116 140,117 148,110 150,105 153,106 167,95 188,86 190,83 221,74 240,71 241,73 272,71 303,77 330,87 356,103 Z" fill="#ef1028" fill-rule="evenodd"/>
<path d="M 229,276 247,294 294,225 302,234 301,235 317,258 287,259 273,281 332,281 341,292 373,293 301,189 297,186 298,185 290,185 291,186 288,188 267,219 268,220 265,222 Z M 100,185 123,209 196,208 202,215 202,226 196,233 118,232 119,306 124,306 144,284 144,257 150,256 151,253 152,256 161,256 198,293 234,293 198,257 200,254 209,255 230,233 230,207 209,185 Z M 182,276 183,274 186,275 184,278 Z M 206,193 207,192 208,194 207,195 Z" fill="#f2f2f2" fill-rule="evenodd"/>
<text x="256" y="322" text-anchor="middle" fill="#ef1028" font-family="Arial,Helvetica,sans-serif" font-size="16" letter-spacing="6">THE UNCENSORED AI</text>
</svg>
